HIERARCHY
ROOT root
{
	OFFSET	0	13.1	24.9
	CHANNELS 6  Xposition Yposition Zposition Xrotation Yrotation Zrotation
	JOINT spine_1
	{
		OFFSET	0	9.99999	0
		CHANNELS 3  Xrotation Yrotation Zrotation
		JOINT spine_2
		{
			OFFSET	0	112	-10
			CHANNELS 3  Xrotation Yrotation Zrotation
			JOINT spine_3
			{
				OFFSET	0	206.5	19.3
				CHANNELS 3  Xrotation Yrotation Zrotation
				JOINT spine_4
				{
					OFFSET	0	110.4	14.6
					CHANNELS 3  Xrotation Yrotation Zrotation
					JOINT neck_1
					{
						OFFSET	0	71.8	-50.3
						CHANNELS 3  Xrotation Yrotation Zrotation
						JOINT neck_2
						{
							OFFSET	0	86.2	-25.8
							CHANNELS 3  Xrotation Yrotation Zrotation
							JOINT head_ee
							{
								OFFSET	0	179.8	-8.7
								CHANNELS 3  Xrotation Yrotation Zrotation
								End Site
								{
									OFFSET	1	0	0
								}
							}
						}
					}
					JOINT left_clavicle
					{
						OFFSET	-43.2	22.4	-70.8
						CHANNELS 3  Xrotation Yrotation Zrotation
						JOINT left_shoulder
						{
							OFFSET	-93.9	-5.79999	48.7
							CHANNELS 3  Xrotation Yrotation Zrotation
							JOINT left_elbow
							{
								OFFSET	-291.4	-30.8	15.2
								CHANNELS 3  Xrotation Yrotation Zrotation
								JOINT left_lowarm_twist
								{
									OFFSET	-110.7	-3.89999	13.6
									CHANNELS 3  Xrotation Yrotation Zrotation
									JOINT left_hand
									{
										OFFSET	-110.7	-3.89999	13.6
										CHANNELS 3  Xrotation Yrotation Zrotation
										JOINT left_ee
										{
											OFFSET	-80.8	-5.10001	12.1
											CHANNELS 3  Xrotation Yrotation Zrotation
											End Site
											{
												OFFSET	1	0	0
											}
										}
									}
								}
							}
						}
					}
					JOINT right_clavicle
					{
						OFFSET	43.2	22.4	-70.8
						CHANNELS 3  Xrotation Yrotation Zrotation
						JOINT right_shoulder
						{
							OFFSET	93.9	-5.79999	48.7
							CHANNELS 3  Xrotation Yrotation Zrotation
							JOINT right_elbow
							{
								OFFSET	291.4	-30.8	15.2
								CHANNELS 3  Xrotation Yrotation Zrotation
								JOINT right_lowarm_twist
								{
									OFFSET	110.7	-3.89999	13.6
									CHANNELS 3  Xrotation Yrotation Zrotation
									JOINT right_hand
									{
										OFFSET	110.7	-3.89999	13.6
										CHANNELS 3  Xrotation Yrotation Zrotation
										JOINT right_ee
										{
											OFFSET	80.8	-5.10001	12.1
											CHANNELS 3  Xrotation Yrotation Zrotation
											End Site
											{
												OFFSET	1	0	0
											}
										}
									}
								}
							}
						}
					}
				}
			}
		}
	}
	JOINT left_hip
	{
		OFFSET	-82.8	-127.5	0.300001
		CHANNELS 3  Xrotation Yrotation Zrotation
		JOINT left_knee
		{
			OFFSET	-28.2	-396.7	2.2
			CHANNELS 3  Xrotation Yrotation Zrotation
			JOINT left_ankle
			{
				OFFSET	-11.7	-411.3	35.4
				CHANNELS 3  Xrotation Yrotation Zrotation
				JOINT left_toes
				{
					OFFSET	0	-60	-88.6
					CHANNELS 3  Xrotation Yrotation Zrotation
					JOINT left_foot_ee
					{
						OFFSET	-22.5	-16.5	-42.2
						CHANNELS 3  Xrotation Yrotation Zrotation
						End Site
						{
							OFFSET	1	0	0
						}
					}
				}
			}
		}
	}
	JOINT right_hip
	{
		OFFSET	82.8	-127.5	0.300001
		CHANNELS 3  Xrotation Yrotation Zrotation
		JOINT right_knee
		{
			OFFSET	28.2	-396.7	2.2
			CHANNELS 3  Xrotation Yrotation Zrotation
			JOINT right_ankle
			{
				OFFSET	11.7	-411.3	35.4
				CHANNELS 3  Xrotation Yrotation Zrotation
				JOINT right_toes
				{
					OFFSET	0	-60	-88.6
					CHANNELS 3  Xrotation Yrotation Zrotation
					JOINT right_foot_ee
					{
						OFFSET	22.5	-16.5	-42.2
						CHANNELS 3  Xrotation Yrotation Zrotation
						End Site
						{
							OFFSET	1	0	0
						}
					}
				}
			}
		}
	}
}
MOTION
Frames: 14
Frame Time: 0.02
2544.24386177 748.408 -1490.31289825 59.9738967054 76.9539414121 -68.1303192024 -3.28489 0.627636 4.35019 -3.27443 0.349822 4.38123 -3.2331 -0.824842 4.31721 -3.25908 -0.133356 4.39313 -6.37037 4.82494 -3.12689 -6.32331 11.2188 -2.21735 -0.0 0.0 -0.0 -7.57122 19.9646 -8.96875 3.77102 -13.1263 79.7632 0.20086 -5.68236 0.00996837 20.5208 0.260952 -2.59437 -1.81224 22.2111 -1.65691 -0.0 0.0 -0.0 7.46516 17.0728 -14.0084 9.32787 26.5986 -69.9121 1.99683 44.683 -0.820719 21.1883 -0.25374 2.67934 -2.21578 -22.9021 3.65567 0.0 0.0 0.0 -10.4196 17.7439 6.64484 -30.9728 0.00557898 4.69577 40.5417 24.9237 -5.21714 -40.0593 0.0 0.0 -0.0 0.0 -0.0 -3.18798 25.141 0.431909 -8.5909 -0.257238 -1.29211 37.9358 29.6849 5.68927 9.07697 -0.0 -0.0 0.0 0.0 0.0 
2539.33365298 748.919 -1483.76858106 66.7923513815 78.0257991709 -75.1810381638 -3.24083 0.635332 4.53962 -3.22943 0.345486 4.57076 -3.18621 -0.875775 4.4995 -3.21442 -0.154952 4.58115 -7.29844 4.98587 -3.51641 -7.25663 11.7948 -2.4787 -0.0 0.0 -0.0 -7.61379 20.0172 -9.01683 3.63401 -12.9086 80.3263 0.195725 -5.53802 0.00946643 19.9302 0.266506 -2.51915 -2.22902 25.3453 -2.50679 -0.0 0.0 -0.0 7.54729 16.2303 -14.2416 10.6628 25.339 -69.9734 2.11946 46.3892 -0.908251 20.1509 -0.264521 2.54727 -2.04075 -19.6069 4.26161 0.0 0.0 0.0 -7.57309 17.9222 4.95962 -25.8684 0.180015 3.93207 40.1347 22.8081 -5.11382 -40.167 0.0 0.0 -0.0 0.0 -0.0 -4.03287 27.4708 0.88213 -7.95115 -0.244792 -1.19473 37.8913 27.7947 5.56116 9.9328 -0.0 -0.0 0.0 0.0 0.0 
2540.67863964 752.693 -1481.0876161 68.3221319032 79.6000033745 -76.6532923195 -3.32063 0.49461 4.56477 -3.30907 0.203452 4.58693 -3.27733 -1.02459 4.47589 -3.30515 -0.305631 4.58127 -9.47564 4.82261 -6.2423 -9.39738 13.324 -4.96572 -0.0 0.0 -0.0 -6.69113 19.6994 -7.69996 2.56592 -12.1272 78.6172 0.202146 -5.71851 0.0100962 20.0305 0.265617 -2.53193 -2.21871 28.7419 -0.753947 -0.0 0.0 -0.0 7.56391 14.7056 -14.3682 11.4578 23.9928 -69.3714 2.60812 52.2512 -1.27932 18.3123 -0.277746 2.3128 -1.86885 -14.6683 5.6115 0.0 0.0 0.0 -6.09033 23.4146 4.65395 -10.8737 0.292769 1.64058 40.7256 22.4785 -5.15962 -38.9525 0.0 0.0 -0.0 0.0 -0.0 -4.14778 27.8794 1.47338 -4.10461 -0.147103 -0.612622 38.2068 24.6384 5.40966 10.0346 -0.0 -0.0 0.0 0.0 0.0 
2536.32429601 752.897 -1479.6633063 72.9598211768 80.7796483389 -80.8672048618 -3.1797 0.691779 4.55124 -3.16827 0.401082 4.58594 -3.12038 -0.820807 4.5298 -3.14899 -0.0958994 4.60241 -7.67361 3.95433 -7.27457 -7.51156 12.5451 -6.41701 -0.0 0.0 -0.0 -6.39521 20.0349 -7.14724 2.04489 -11.6619 77.7326 0.238948 -6.75074 0.0140931 20.022 0.265693 -2.53084 -2.36609 28.8275 -1.50221 -0.0 0.0 -0.0 7.75 13.499 -14.8344 11.9537 21.9825 -69.7289 2.73254 53.5348 -1.37855 16.9896 -0.282604 2.14394 -1.90151 -12.1155 7.04658 0.0 0.0 0.0 -5.14438 23.9898 4.00877 -6.20482 0.205289 0.929666 37.9329 21.9293 -4.87867 -38.1821 0.0 0.0 -0.0 0.0 -0.0 -3.63442 28.4277 0.908015 -1.66914 -0.0651193 -0.247869 37.0835 23.1728 5.22409 10.044 -0.0 -0.0 0.0 0.0 0.0 
2524.12248089 753.829 -1473.29701733 83.0135831233 81.8980110343 -89.8754964047 -3.14548 0.432375 4.45567 -3.13445 0.148262 4.47411 -3.10885 -1.03499 4.35551 -3.13516 -0.334853 4.46405 -7.51312 2.4262 -9.02957 -7.26311 10.9751 -8.51787 -0.0 0.0 -0.0 -6.09518 20.4773 -6.56485 1.64562 -10.3307 77.4278 0.192259 -5.44054 0.00913485 20.6373 0.259765 -2.6092 -1.98881 28.8736 0.544093 -0.0 0.0 -0.0 6.82071 13.0178 -12.8615 11.228 21.1975 -68.8783 3.345 58.8755 -1.88808 15.8478 -0.283662 1.9981 -1.42237 -6.56426 6.55103 0.0 0.0 0.0 -5.19056 28.0984 4.42425 0.795855 -0.0335893 -0.117508 35.4022 23.125 -4.65355 -35.6519 0.0 0.0 -0.0 0.0 -0.0 -2.80959 28.0607 -0.305091 0.570748 0.0239227 0.0843175 38.1282 15.4896 5.0126 10.7691 -0.0 -0.0 0.0 0.0 0.0 
2524.12440596 753.829 -1472.63443976 83.9716820968 81.9135538999 -90.8432356592 -3.14548 0.432375 4.45567 -3.13445 0.148262 4.47411 -3.10885 -1.03499 4.35551 -3.13516 -0.334853 4.46405 -7.51312 2.4262 -9.02957 -7.26311 10.9751 -8.51787 -0.0 0.0 -0.0 -6.09518 20.4773 -6.56485 1.64562 -10.3307 77.4278 0.192259 -5.44054 0.00913485 20.6373 0.259765 -2.6092 -1.98881 28.8736 0.544093 -0.0 0.0 -0.0 6.82071 13.0178 -12.8615 11.228 21.1975 -68.8783 3.345 58.8755 -1.88808 15.8478 -0.283662 1.9981 -1.42237 -6.56426 6.55103 0.0 0.0 0.0 -5.19056 28.0984 4.42425 0.795855 -0.0335893 -0.117508 35.4022 23.125 -4.65355 -35.6519 0.0 0.0 -0.0 0.0 -0.0 -2.80959 28.0607 -0.305091 0.570748 0.0239227 0.0843175 38.1282 15.4896 5.0126 10.7691 -0.0 -0.0 0.0 0.0 0.0 
2524.13510824 753.829 -1471.08401852 86.2261399667 81.940976866 -93.1202514824 -3.14548 0.432375 4.45567 -3.13445 0.148262 4.47411 -3.10885 -1.03499 4.35551 -3.13516 -0.334853 4.46405 -7.51312 2.4262 -9.02957 -7.26311 10.9751 -8.51787 -0.0 0.0 -0.0 -6.09518 20.4773 -6.56485 1.64562 -10.3307 77.4278 0.192259 -5.44054 0.00913485 20.6373 0.259765 -2.6092 -1.98881 28.8736 0.544093 -0.0 0.0 -0.0 6.82071 13.0178 -12.8615 11.228 21.1975 -68.8783 3.345 58.8755 -1.88808 15.8478 -0.283662 1.9981 -1.42237 -6.56426 6.55103 0.0 0.0 0.0 -5.19056 28.0984 4.42425 0.795855 -0.0335893 -0.117508 35.4022 23.125 -4.65355 -35.6519 0.0 0.0 -0.0 0.0 -0.0 -2.80959 28.0607 -0.305091 0.570748 0.0239227 0.0843175 38.1282 15.4896 5.0126 10.7691 -0.0 -0.0 0.0 0.0 0.0 
2524.25997093 753.829 -1465.03363274 95.0733747258 81.9267291638 -102.055532656 -3.14548 0.432375 4.45567 -3.13445 0.148262 4.47411 -3.10885 -1.03499 4.35551 -3.13516 -0.334853 4.46405 -7.51312 2.4262 -9.02957 -7.26311 10.9751 -8.51787 -0.0 0.0 -0.0 -6.09518 20.4773 -6.56485 1.64562 -10.3307 77.4278 0.192259 -5.44054 0.00913485 20.6373 0.259765 -2.6092 -1.98881 28.8736 0.544093 -0.0 0.0 -0.0 6.82071 13.0178 -12.8615 11.228 21.1975 -68.8783 3.345 58.8755 -1.88808 15.8478 -0.283662 1.9981 -1.42237 -6.56426 6.55103 0.0 0.0 0.0 -5.19056 28.0984 4.42425 0.795855 -0.0335893 -0.117508 35.4022 23.125 -4.65355 -35.6519 0.0 0.0 -0.0 0.0 -0.0 -2.80959 28.0607 -0.305091 0.570748 0.0239227 0.0843175 38.1282 15.4896 5.0126 10.7691 -0.0 -0.0 0.0 0.0 0.0 
2524.37472907 753.829 -1461.94572358 99.5242940974 81.8454119192 -106.551411997 -3.14548 0.432375 4.45567 -3.13445 0.148262 4.47411 -3.10885 -1.03499 4.35551 -3.13516 -0.334853 4.46405 -7.51312 2.4262 -9.02957 -7.26311 10.9751 -8.51787 -0.0 0.0 -0.0 -6.09518 20.4773 -6.56485 1.64562 -10.3307 77.4278 0.192259 -5.44054 0.00913485 20.6373 0.259765 -2.6092 -1.98881 28.8736 0.544093 -0.0 0.0 -0.0 6.82071 13.0178 -12.8615 11.228 21.1975 -68.8783 3.345 58.8755 -1.88808 15.8478 -0.283662 1.9981 -1.42237 -6.56426 6.55103 0.0 0.0 0.0 -5.19056 28.0984 4.42425 0.795855 -0.0335893 -0.117508 35.4022 23.125 -4.65355 -35.6519 0.0 0.0 -0.0 0.0 -0.0 -2.80959 28.0607 -0.305091 0.570748 0.0239227 0.0843175 38.1282 15.4896 5.0126 10.7691 -0.0 -0.0 0.0 0.0 0.0 
2524.35372372 753.829 -1462.44770456 98.807095628 81.8619769829 -105.82690304 -3.14548 0.432375 4.45567 -3.13445 0.148262 4.47411 -3.10885 -1.03499 4.35551 -3.13516 -0.334853 4.46405 -7.51312 2.4262 -9.02957 -7.26311 10.9751 -8.51787 -0.0 0.0 -0.0 -6.09518 20.4773 -6.56485 1.64562 -10.3307 77.4278 0.192259 -5.44054 0.00913485 20.6373 0.259765 -2.6092 -1.98881 28.8736 0.544093 -0.0 0.0 -0.0 6.82071 13.0178 -12.8615 11.228 21.1975 -68.8783 3.345 58.8755 -1.88808 15.8478 -0.283662 1.9981 -1.42237 -6.56426 6.55103 0.0 0.0 0.0 -5.19056 28.0984 4.42425 0.795855 -0.0335893 -0.117508 35.4022 23.125 -4.65355 -35.6519 0.0 0.0 -0.0 0.0 -0.0 -2.80959 28.0607 -0.305091 0.570748 0.0239227 0.0843175 38.1282 15.4896 5.0126 10.7691 -0.0 -0.0 0.0 0.0 0.0 
2524.45707949 753.829 -1460.15540241 102.056572259 81.7759458755 -109.109769244 -3.14548 0.432375 4.45567 -3.13445 0.148262 4.47411 -3.10885 -1.03499 4.35551 -3.13516 -0.334853 4.46405 -7.51312 2.4262 -9.02957 -7.26311 10.9751 -8.51787 -0.0 0.0 -0.0 -6.09518 20.4773 -6.56485 1.64562 -10.3307 77.4278 0.192259 -5.44054 0.00913485 20.6373 0.259765 -2.6092 -1.98881 28.8736 0.544093 -0.0 0.0 -0.0 6.82071 13.0178 -12.8615 11.228 21.1975 -68.8783 3.345 58.8755 -1.88808 15.8478 -0.283662 1.9981 -1.42237 -6.56426 6.55103 0.0 0.0 0.0 -5.19056 28.0984 4.42425 0.795855 -0.0335893 -0.117508 35.4022 23.125 -4.65355 -35.6519 0.0 0.0 -0.0 0.0 -0.0 -2.80959 28.0607 -0.305091 0.570748 0.0239227 0.0843175 38.1282 15.4896 5.0126 10.7691 -0.0 -0.0 0.0 0.0 0.0 
2453.82723388 753.488 -1464.39990523 78.8161196282 83.8218774308 -84.6355990544 -2.17438 0.50589 3.64754 -2.16702 0.272922 3.67229 -2.14147 -0.641619 3.62615 -2.15981 -0.0612888 3.68189 -6.30349 2.61927 -1.34356 -6.29343 5.8322 -0.849613 -0.0 0.0 -0.0 -5.74719 18.611 -6.56054 5.98457 -9.63723 76.3298 0.218546 -6.179 0.0117959 21.9777 0.243936 -2.77969 -1.47761 28.8442 3.27361 -0.0 0.0 -0.0 7.39957 11.4703 -14.1753 1.59905 18.4054 -70.5783 3.20952 57.8185 -1.77275 15.6629 -0.283559 1.97449 -0.734605 1.02225 5.35693 0.0 0.0 0.0 -10.7265 29.2084 4.96187 4.86515 -0.230699 -0.710559 34.3644 22.7208 -4.53475 -29.7587 0.0 0.0 -0.0 0.0 -0.0 -3.75789 28.9545 -1.50805 -3.05416 -0.113646 -0.454883 37.0049 6.81109 4.69319 16.2576 -0.0 -0.0 0.0 0.0 0.0 
2449.59960616 751.673 -1472.60309895 66.5726219651 83.0400461322 -72.4809948277 -2.17113 0.424278 3.58637 -2.16399 0.19536 3.60607 -2.14412 -0.700719 3.5428 -2.16161 -0.132786 3.60891 -6.94558 3.14751 0.933115 -6.94391 5.17022 1.56743 -0.0 0.0 -0.0 -5.6221 18.1685 -6.48665 7.08078 -10.0593 75.6948 0.261146 -7.37126 0.0168219 21.8395 0.245753 -2.76213 -1.53493 28.8663 2.97564 -0.0 0.0 -0.0 7.29187 11.1331 -13.96 0.711667 18.2989 -71.063 2.89795 55.1285 -1.51295 15.5515 -0.283461 1.96026 -0.788676 -1.1601 4.76677 0.0 0.0 0.0 -10.7788 28.5814 4.48611 3.66722 -0.168295 -0.537419 34.9456 22.3808 -4.58758 -29.0815 0.0 0.0 -0.0 0.0 -0.0 -4.71159 30.4209 -1.58565 -3.35325 -0.123467 -0.499735 37.2938 6.73853 4.71867 15.9651 -0.0 -0.0 0.0 0.0 0.0 
2443.44498136 754.996 -1482.54691472 52.2330909698 82.0743829657 -58.0788182401 -2.174 0.416176 3.54741 -2.16702 0.189748 3.56668 -2.1478 -0.696649 3.5032 -2.1649 -0.13501 3.56916 -7.64626 3.56407 1.67202 -7.64205 5.44959 2.41727 -0.0 0.0 -0.0 -5.52025 17.8336 -6.41723 8.0824 -10.426 75.3581 0.338888 -9.52988 0.0282485 21.3638 0.251681 -2.70165 -1.6292 28.682 2.38546 -0.0 0.0 -0.0 7.4777 11.3372 -14.348 -1.18914 18.7033 -71.4938 2.65215 52.7142 -1.31424 15.2384 -0.283037 1.92027 -0.833125 -2.99969 4.25723 0.0 0.0 0.0 -11.1253 28.1522 4.23705 3.03848 -0.136997 -0.446045 33.6726 21.6745 -4.43735 -29.395 0.0 0.0 -0.0 0.0 -0.0 -5.27222 31.4325 -1.37828 -3.01126 -0.112219 -0.448454 36.3708 6.35035 4.62597 15.5995 -0.0 -0.0 0.0 0.0 0.0 
